<svg width="24" height="24" viewBox="0 0 24 24" fill="none" xmlns="http://www.w3.org/2000/svg">
<rect width="24" height="24" rx="4" fill="url(#paint0_linear)"/>
<path fill-rule="evenodd" clip-rule="evenodd" d="M15 4.5H9C6.51472 4.5 4.5 6.51472 4.5 9V15C4.5 17.4853 6.51472 19.5 9 19.5H15C17.4853 19.5 19.5 17.4853 19.5 15V9C19.5 6.51472 17.4853 4.5 15 4.5ZM6 9C6 7.34315 7.34315 6 9 6H15C16.6569 6 18 7.34315 18 9V15C18 16.6569 16.6569 18 15 18H9C7.34315 18 6 16.6569 6 15V9ZM12 15.75C9.92893 15.75 8.25 14.0711 8.25 12C8.25 9.92893 9.92893 8.25 12 8.25C14.0711 8.25 15.75 9.92893 15.75 12C15.75 14.0711 14.0711 15.75 12 15.75ZM12 14.25C13.2426 14.25 14.25 13.2426 14.25 12C14.25 10.7574 13.2426 9.75 12 9.75C10.7574 9.75 9.75 10.7574 9.75 12C9.75 13.2426 10.7574 14.25 12 14.25ZM16.5 8.25C16.5 8.66421 16.1642 9 15.75 9C15.3358 9 15 8.66421 15 8.25C15 7.83579 15.3358 7.5 15.75 7.5C16.1642 7.5 16.5 7.83579 16.5 8.25Z" fill="white"/>
<defs>
<linearGradient id="paint0_linear" x1="1.60459" y1="22.4367" x2="23.8419" y2="3.18621" gradientUnits="userSpaceOnUse">
<stop stop-color="#FFDD55"/>
<stop offset="0.5" stop-color="#FF543E"/>
<stop offset="1" stop-color="#C837AB"/>
</linearGradient>
</defs>
</svg>
