<svg width="24" height="24" viewBox="0 0 24 24" fill="none" xmlns="http://www.w3.org/2000/svg">
<rect width="24" height="24" rx="4" fill="#45C5ED"/>
<path fill-rule="evenodd" clip-rule="evenodd" d="M16.8069 8.41001C17.3261 8.08241 17.7244 7.56294 17.9113 6.94414C17.4253 7.24823 16.8882 7.46815 16.3151 7.58721C15.8578 7.07154 15.2042 6.75 14.4809 6.75C13.0932 6.75 11.9686 7.9368 11.9686 9.4004C11.9686 9.60819 11.9895 9.81067 12.0326 10.004C9.94456 9.89333 8.09308 8.83923 6.85276 7.23458C6.63634 7.6274 6.51266 8.08241 6.51266 8.56775C6.51266 9.48686 6.9563 10.2983 7.63074 10.7745C7.21874 10.7609 6.83119 10.6403 6.49181 10.4431V10.4757C6.49181 11.7604 7.35752 12.8319 8.50867 13.0746C8.29728 13.1368 8.07582 13.1678 7.84573 13.1678C7.68395 13.1678 7.52577 13.1519 7.37333 13.1208C7.69258 14.1734 8.62084 14.9408 9.72095 14.9613C8.86027 15.6726 7.77671 16.0958 6.59967 16.0958C6.3969 16.0958 6.19629 16.0844 6 16.0594C7.11233 16.8109 8.43317 17.25 9.85253 17.25C14.4758 17.25 17.0025 13.2111 17.0025 9.70829C17.0025 9.59302 17.0011 9.47851 16.996 9.36552C17.4871 8.99166 17.9142 8.52452 18.25 7.99292C17.7992 8.20374 17.3146 8.34631 16.8069 8.41001Z" fill="white"/>
</svg>
